<?xml version="1.0" encoding="UTF-8" standalone="no"?>
<svg width="228px" height="195px" viewBox="0 0 228 195" version="1.1" xmlns="http://www.w3.org/2000/svg" xmlns:xlink="http://www.w3.org/1999/xlink">
    <!-- Generator: sketchtool 41.2 (35397) - http://www.bohemiancoding.com/sketch -->
    <title>B5331135-C8F1-47A3-B13B-E5180A8D63A5</title>
    <desc>Created with sketchtool.</desc>
    <defs>
        <linearGradient x1="76.5369247%" y1="82.8475628%" x2="50%" y2="50%" id="linearGradient-1">
            <stop stop-color="#D7F1F8" offset="0%"></stop>
            <stop stop-color="#ADDEEC" offset="100%"></stop>
        </linearGradient>
        <rect id="path-2" x="19.1928112" y="0" width="34.5470602" height="31.8972735" rx="8"></rect>
        <mask id="mask-3" maskContentUnits="userSpaceOnUse" maskUnits="objectBoundingBox" x="0" y="0" width="34.5470602" height="31.8972735" fill="white">
            <use xlink:href="#path-2"></use>
        </mask>
        <rect id="path-4" x="57.5784336" y="0" width="34.5470602" height="31.8972735" rx="8"></rect>
        <mask id="mask-5" maskContentUnits="userSpaceOnUse" maskUnits="objectBoundingBox" x="0" y="0" width="34.5470602" height="31.8972735" fill="white">
            <use xlink:href="#path-4"></use>
        </mask>
    </defs>
    <g id="V2" stroke="none" stroke-width="1" fill="none" fill-rule="evenodd">
        <g id="Waiting" transform="translate(-146.000000, -472.000000)">
            <rect id="Rectangle-10" fill="#2B56F7" x="0" y="0" width="375" height="667"></rect>
            <g id="Consuela" transform="translate(146.000000, 472.000000)">
                <path d="M43.9173748,86.5325108 C40.6045705,93.8672766 39.3597442,106.111734 42.4746426,112.325341 C45.5895411,118.538947 45.8765729,133.708718 43.5309129,136.727375 C48.7355892,135.73779 51.1447035,131.507702 51.1447035,131.507702 C51.1447035,131.507702 51.9637012,136.683419 49.7872704,140.219621 C61.4792403,135.946055 60.3103677,104.265261 60.3103677,104.265261 L62.3749137,79.1040448 C62.3749137,79.1040448 50.7339235,76.4438568 43.9173748,86.5325108 Z" id="Left-bottom-hair" fill="#121212"></path>
                <path d="M183.893564,86.5325108 C187.206368,93.8672766 188.451195,106.111734 185.336296,112.325341 C182.221398,118.538947 181.934366,133.708718 184.280026,136.727375 C179.075349,135.73779 176.666235,131.507702 176.666235,131.507702 C176.666235,131.507702 175.847238,136.683419 178.023668,140.219621 C166.331698,135.946055 167.500571,104.265261 167.500571,104.265261 L165.436025,79.1040448" id="Right-bottom-hair" fill="#121212"></path>
                <polygon id="Back-collar" fill="#E1ADC0" points="84.826218 151.962908 143.501524 151.962908 114.163871 201.227762"></polygon>
                <ellipse id="Body" fill="#EE7FA5" cx="114.095255" cy="193.043467" rx="113.717406" ry="32.7280508"></ellipse>
                <rect id="Neck" fill="#DAA380" x="88.6647802" y="134.470854" width="50.2409444" height="41.8161613"></rect>
                <path d="M84.826218,151.962908 L114.191548,177.430934 L143.556877,151.962908 L136.747395,193.779069 C136.747395,193.779069 122.238712,177.498606 114.191548,177.430934 C106.144384,177.363262 89.6908572,193.383351 89.6908572,193.383351 L84.826218,151.962908 Z" id="Collar" fill="#F2BCCE"></path>
                <ellipse id="Left-eear" fill="#D49A76" cx="57.4867195" cy="92.2838078" rx="12.965405" ry="11.8747795"></ellipse>
                <ellipse id="Right-ear" fill="#D49A76" cx="169.764665" cy="92.2838078" rx="12.965405" ry="11.8747795"></ellipse>
                <rect id="Face" fill="#D49A76" x="57.9562823" y="36.1644231" width="111.826618" height="112.95522" rx="8"></rect>
                <ellipse id="Left-ring" stroke="#4A666F" fill="url(#linearGradient-1)" cx="56.9966417" cy="103.045803" rx="5.75784336" ry="6.17366585"></ellipse>
                <ellipse id="Right-ring" stroke="#4A666F" fill="url(#linearGradient-1)" cx="172.153509" cy="103.045803" rx="5.75784336" ry="6.17366585"></ellipse>
                <g id="Left-eye" transform="translate(83.866577, 85.553750)">
                    <ellipse id="Oval-2" fill="#FFFFFF" cx="11.1222402" cy="10.5180974" rx="11.0921593" ry="10.0607888"></ellipse>
                    <ellipse id="Oval-3" fill="#333333" cx="11.3502692" cy="10.8910554" rx="1.53571082" ry="1.66201276"></ellipse>
                    <path d="M22.2143906,10.060049 C22.2143965,10.0559459 22.2143995,10.0518421 22.2143995,10.0477378 C22.2143995,4.75108999 17.2482706,0.457308581 11.1222402,0.457308581 C4.99620981,0.457308581 0.0300809352,4.75108999 0.0300809352,10.0477378 C0.0300809352,10.0518421 0.0300839172,10.0559459 0.0300898793,10.060049 L22.2143912,10.060049 Z" id="Combined-Shape" fill="#CF875A"></path>
                </g>
                <g id="Right-eye" transform="translate(122.252200, 85.553750)">
                    <ellipse id="Combined-Shape" fill="#FFFFFF" cx="11.3629642" cy="10.5180974" rx="11.0921593" ry="10.0607888"></ellipse>
                    <ellipse id="Oval-3" fill="#333333" cx="10.7993405" cy="10.8910554" rx="1.53571082" ry="1.66201276"></ellipse>
                    <path d="M22.4313173,10.060049 C22.4313233,10.0559459 22.4313262,10.0518421 22.4313262,10.0477378 C22.4313262,4.75108999 17.4651974,0.457308581 11.3391669,0.457308581 C5.21313653,0.457308581 0.247007655,4.75108999 0.247007655,10.0477378 C0.247007655,10.0518421 0.247010637,10.0559459 0.247016599,10.060049 L22.4313179,10.060049 Z" id="Combined-Shape" fill="#CF875A"></path>
                </g>
                <path d="M97.3015453,127.874454 C97.3015453,127.874454 102.260968,122.596832 107.280994,121.734231 C112.30102,120.87163 114.50514,123.622855 114.50514,123.622855 C114.50514,123.622855 118.607944,121.284574 122.363797,121.734231 C126.11965,122.183888 131.573591,127.834492 131.573591,127.834492 C131.573591,127.834492 123.54767,134.744351 114.872393,134.754467 C106.197116,134.764583 97.3015453,127.874454 97.3015453,127.874454 Z" id="Path-8" fill="#963124"></path>
                <path d="M98.2611858,127.740467 L129.688353,127.902467" id="Line" stroke="#781A00" stroke-linecap="square"></path>
                <g id="Glasses" transform="translate(57.956282, 79.380084)" stroke="#5B1E00">
                    <use id="Rectangle-9" mask="url(#mask-3)" stroke-width="4" xlink:href="#path-2"></use>
                    <use id="Rectangle-9" mask="url(#mask-5)" stroke-width="4" xlink:href="#path-4"></use>
                    <path d="M52.7802308,16.4631089 L58.5380742,16.4631089" id="Line" stroke-width="2" stroke-linecap="square"></path>
                    <path d="M0,4.11577723 L19.1928112,16.4631089" id="Line" stroke-width="2" stroke-linecap="square"></path>
                    <path d="M110.358664,2.05788862 L92.1254938,15.1147913" id="Line" stroke-width="2" stroke-linecap="square"></path>
                </g>
                <g id="Top-Hair" transform="translate(24.280519, 0.466187)" fill="#121212">
                    <path d="M22.5051993,59.0050931 C22.5051993,59.0050931 13.5697564,54.120334 17.4197246,48.0998726 C21.4243417,57.39683 30.0179909,52.9739606 30.0179909,52.9739606 L22.5051993,59.0050931 Z" id="Path"></path>
                    <path d="M25.5593383,55.9182602 C25.5593383,55.9182602 16.6238953,51.033501 20.4738635,45.0130397 C24.4784807,54.3099971 33.0721298,49.8871277 33.0721298,49.8871277 L25.5593383,55.9182602 Z" id="Path"></path>
                    <path d="M88.689059,39.807752 C88.689059,39.807752 98.1184747,40.3307423 104.064321,48.977145 C110.010167,57.6235477 108.806875,63.7449142 127.219267,69.9947507 C125.816928,68.4512789 122.565906,61.2095507 122.565906,58.1059905 C128.861471,64.401656 133.527212,67.5448198 133.028628,66.1507945 C124.989046,43.6723353 147.966089,33.3170885 136.474976,31.2452418 C121.891062,28.6157631 88.689059,39.807752 88.689059,39.807752 Z" id="Path"></path>
                    <path d="M75.0285378,44.9705724 C75.0285378,44.9705724 62.4643764,40.7703434 54.9072244,49.8002894 C47.3500723,58.8302354 46.2162731,65.2351293 43.9151679,73.3878722 C41.6140627,81.5406151 35.7184212,87.4470646 22.9558405,88.0414701 C10.1932598,88.6358755 -0.934994041,74.5116343 0.478523655,62.2916904 C18.0686964,65.1463689 27.3757365,47.9162062 29.1612889,43.2903305 C30.9468412,38.6644549 31.3341153,39.1525155 30.21401,37.5122738 C34.3495573,-3.75736461 67.5956339,5.91132497 67.5956339,5.91132497 C67.5956339,5.91132497 75.6233677,-1.11662608 90.4868947,0.237863299 C105.350422,1.59235268 108.840961,8.86866647 108.840961,8.86866647 C108.840961,8.86866647 115.684655,0.729217948 139.564554,8.86866647 C156.91733,14.7833494 146.074494,48.3432639 181.60204,63.4319087 C178.333717,83.2124387 161.820814,85.2728227 160.138373,85.6655361 C142.414197,85.6655361 138.63344,71.0688502 135.901338,59.977431 C111.980524,51.4521622 125.143292,43.2903305 105.350422,41.2278879 C85.5575517,39.1654452 75.0285378,44.9705724 75.0285378,44.9705724 Z" id="Path"></path>
                </g>
            </g>
        </g>
    </g>
</svg>